<svg width="25" height="25" viewBox="0 0 25 25" fill="none" xmlns="http://www.w3.org/2000/svg">
<path d="M25 17.7375C25 22.2875 22.2875 25 17.7375 25H16.25C15.5625 25 15 24.4375 15 23.75V16.5375C15 16.2 15.275 15.9125 15.6125 15.9125L17.8125 15.875C17.9875 15.8625 18.1375 15.7375 18.175 15.5625L18.6125 13.175C18.65 12.95 18.475 12.7375 18.2375 12.7375L15.575 12.775C15.225 12.775 14.95 12.5 14.9375 12.1625L14.8875 9.1C14.8875 8.9 15.05 8.72501 15.2625 8.72501L18.2625 8.675C18.475 8.675 18.6375 8.51251 18.6375 8.30001L18.5875 5.29999C18.5875 5.08749 18.425 4.925 18.2125 4.925L14.8375 4.97501C12.7625 5.01251 11.1125 6.7125 11.15 8.7875L11.2125 12.225C11.225 12.575 10.95 12.85 10.6 12.8625L9.1 12.8875C8.8875 12.8875 8.72501 13.05 8.72501 13.2625L8.76251 15.6375C8.76251 15.85 8.925 16.0125 9.1375 16.0125L10.6375 15.9875C10.9875 15.9875 11.2625 16.2625 11.275 16.6L11.3875 23.725C11.4 24.425 10.8375 25 10.1375 25H7.2625C2.7125 25 0 22.2875 0 17.725V7.2625C0 2.7125 2.7125 0 7.2625 0H17.7375C22.2875 0 25 2.7125 25 7.2625V17.7375Z" fill="white"/>
</svg>
