<svg width="25" height="25" viewBox="0 0 25 25" fill="none" xmlns="http://www.w3.org/2000/svg">
<path d="M24.9195 7.37887C24.9042 6.32969 24.7099 5.28884 24.3378 4.30757C23.6867 2.63194 22.3609 1.30696 20.6825 0.658333C19.7121 0.293824 18.6861 0.0984035 17.6477 0.0762281C16.3122 0.0166316 15.8888 0 12.4986 0C9.10845 0 8.67392 9.05362e-08 7.34812 0.0762281C6.31108 0.0984035 5.28515 0.293824 4.31475 0.658333C2.63633 1.30696 1.30914 2.63194 0.659429 4.30757C0.294313 5.27636 0.097179 6.30059 0.0777432 7.3359C0.0180475 8.67059 0 9.0933 0 12.4778C0 15.8623 -1.51145e-08 16.2948 0.0777432 17.6197C0.0985673 18.6565 0.294313 19.6793 0.659429 20.6509C1.31053 22.3251 2.63633 23.6501 4.31614 24.2987C5.28237 24.6757 6.30831 24.8891 7.34951 24.9224C8.68642 24.982 9.10984 25 12.5 25C15.8902 25 16.3247 25 17.6505 24.9224C18.6875 24.9016 19.7135 24.7062 20.6853 24.3417C22.3637 23.6917 23.6895 22.3667 24.3406 20.6924C24.7057 19.7223 24.9014 18.6994 24.9223 17.6613C24.982 16.328 25 15.9053 25 12.5194C24.9972 9.13488 24.9972 8.70524 24.9195 7.37887ZM12.4903 18.8782C8.94464 18.8782 6.0723 16.0106 6.0723 12.4709C6.0723 8.93115 8.94464 6.06359 12.4903 6.06359C16.0332 6.06359 18.9083 8.93115 18.9083 12.4709C18.9083 16.0106 16.0332 18.8782 12.4903 18.8782ZM19.1637 7.32066C18.3349 7.32066 17.6671 6.65262 17.6671 5.82659C17.6671 5.00056 18.3349 4.33252 19.1637 4.33252C19.9897 4.33252 20.6589 5.00056 20.6589 5.82659C20.6589 6.65262 19.9897 7.32066 19.1637 7.32066Z" fill="white"/>
<path d="M12.4903 16.633C14.7928 16.633 16.6593 14.7696 16.6593 12.471C16.6593 10.1724 14.7928 8.30896 12.4903 8.30896C10.1878 8.30896 8.32131 10.1724 8.32131 12.471C8.32131 14.7696 10.1878 16.633 12.4903 16.633Z" fill="white"/>
</svg>
