<svg width="25" height="25" viewBox="0 0 25 25" fill="none" xmlns="http://www.w3.org/2000/svg">
<path d="M21.2969 21.3048H17.5992V15.5026C17.5992 14.1191 17.5703 12.341 15.6656 12.341C13.7375 12.341 13.4438 13.8418 13.4438 15.4003V21.304H9.74141V9.37393H13.2977V11.0012H13.3453C13.8422 10.0614 15.0508 9.07315 16.8539 9.07315C20.6047 9.07315 21.3008 11.5426 21.3008 14.7534V21.304L21.2969 21.3048ZM5.55859 7.74351C4.36562 7.74351 3.40937 6.77869 3.40937 5.59045C3.40937 4.40611 4.36953 3.44286 5.55859 3.44286C6.74766 3.44286 7.71094 4.40611 7.71094 5.59045C7.71094 6.77869 6.74766 7.74351 5.55859 7.74351ZM7.41328 21.3048H3.70312V9.37471H7.41328V21.3048ZM23.1531 0H1.84375C0.825781 0 0 0.805444 0 1.80229V23.1977C0 24.1946 0.825781 25 1.84375 25H23.1492C24.1656 25 25 24.1946 25 23.1977V1.80229C25 0.805444 24.1656 0 23.1492 0L23.1531 0Z" fill="white"/>
</svg>
