<?xml version="1.0" encoding="UTF-8" standalone="no" ?>
<!DOCTYPE svg PUBLIC "-//W3C//DTD SVG 1.1//EN" "http://www.w3.org/Graphics/SVG/1.1/DTD/svg11.dtd">
<svg xmlns="http://www.w3.org/2000/svg" xmlns:xlink="http://www.w3.org/1999/xlink" version="1.1" width="340" height="90" viewBox="0 0 340 90" xml:space="preserve">
<desc>Created with Fabric.js 5.2.4</desc>
<defs>
</defs>
<rect x="0" y="0" width="100%" height="100%" fill="transparent"></rect>
<g transform="matrix(1 0 0 1 170 45)" id="47f86170-224d-4f5e-98d1-7cdc1fa9bac5"  >
<rect style="stroke: none; stroke-width: 1; stroke-dasharray: none; stroke-linecap: butt; stroke-dashoffset: 0; stroke-linejoin: miter; stroke-miterlimit: 4; fill: rgb(255,255,255); fill-rule: nonzero; opacity: 1; visibility: hidden;" vector-effect="non-scaling-stroke"  x="-170" y="-45" rx="0" ry="0" width="340" height="90" />
</g>
<g transform="matrix(Infinity NaN NaN Infinity 0 0)" id="65200b88-9dae-43ab-b1e0-487f4690660b"  >
</g>
<g transform="matrix(0.51 0 0 0.51 170 45)"  >
<g style="" vector-effect="non-scaling-stroke"   >
		<g transform="matrix(1 0 0 1 205.45 72.3)"  >
<path style="stroke: none; stroke-width: 1; stroke-dasharray: none; stroke-linecap: butt; stroke-dashoffset: 0; stroke-linejoin: miter; stroke-miterlimit: 4; fill: rgb(255,255,255); fill-rule: nonzero; opacity: 1;" vector-effect="non-scaling-stroke"  transform=" translate(-766.12, -799.41)" d="M 766.523 796.769 C 767.388 797.753 768.517 798.726 768.3870000000001 798.941 C 767.701 800.0830000000001 766.6980000000001 801.034 765.8050000000001 802.051 C 765.1020000000001 801.051 764.09 800.12 763.8460000000001 799.019 C 763.746 798.569 765.308 797.75 766.523 796.769 z" stroke-linecap="round" />
</g>
		<g transform="matrix(1 0 0 1 10.21 -15.85)"  >
<path style="stroke: none; stroke-width: 1; stroke-dasharray: none; stroke-linecap: butt; stroke-dashoffset: 0; stroke-linejoin: miter; stroke-miterlimit: 4; fill: rgb(255,255,255); fill-rule: nonzero; opacity: 1;" vector-effect="non-scaling-stroke"  transform=" translate(-570.88, -711.26)" d="M 794.157 743.887 C 786.3620000000001 744.8459999999999 779.0400000000001 740.741 771.82 737.6329999999999 C 767.3240000000001 735.6969999999999 761.7470000000001 736.131 758.2030000000001 731.997 C 753.339 731.9069999999999 749.075 729.372 744.599 728.04 C 736.6640000000001 725.679 728.8620000000001 722.573 722.0010000000001 717.1949999999999 C 711.2760000000001 708.789 698.7600000000001 703.1239999999999 686.7230000000001 696.847 C 681.0720000000001 693.9 676.0490000000001 689.6229999999999 669.623 688.159 C 668.197 687.834 666.893 686.923 665.464 686.676 C 663.0730000000001 686.263 661.917 686.6260000000001 664.037 689.201 C 664.676 689.9780000000001 664.0400000000001 691.774 664.0540000000001 693.102 C 664.1220000000001 699.711 666.8520000000001 703.319 673.652 705.9929999999999 C 674.5590000000001 706.3499999999999 675.283 707.449 676.162 707.5419999999999 C 678.0310000000001 707.7399999999999 678.6270000000001 708.9459999999999 677.799 710.0799999999999 C 676.999 711.1759999999999 675.313 711.6239999999999 674.0169999999999 712.357 C 672.1909999999999 709.06 668.3629999999999 711.387 665.6299999999999 709.25 C 663.3759999999999 707.487 661.0849999999999 705.647 659.4859999999999 703.497 C 656.2669999999998 699.1669999999999 650.5509999999999 698.433 647.3659999999999 694.2819999999999 C 644.2799999999999 695.083 641.1079999999998 695.6569999999999 638.1359999999999 696.7639999999999 C 636.0699999999998 697.5339999999999 634.2899999999998 699.0609999999999 632.3539999999998 700.2009999999999 C 631.7529999999998 700.555 631.0579999999998 700.7499999999999 630.4059999999998 701.0179999999999 C 631.0949999999998 701.2829999999999 631.7899999999998 701.531 632.4709999999999 701.8149999999999 C 639.1159999999999 704.587 643.7149999999999 709.848 648.3529999999998 715.0239999999999 C 648.8579999999998 715.5869999999999 648.8209999999998 716.8349999999999 648.6489999999999 717.6879999999999 C 648.5949999999999 717.9559999999999 647.1469999999999 718.2889999999999 646.5559999999999 718.0499999999998 C 640.031 715.4109999999998 632.5769999999999 716.5979999999998 626.271 712.8959999999998 C 622.4689999999999 710.6639999999999 618.1329999999999 709.3209999999998 614.4019999999999 706.9929999999998 C 609.305 703.8119999999998 604.5579999999999 700.0709999999998 599.6569999999999 696.5769999999998 C 593.328 692.0649999999998 586.766 687.8379999999997 580.756 682.9349999999997 C 577.649 680.4009999999997 575.105 676.9139999999998 573.057 673.4189999999998 C 570.921 669.7729999999998 567.707 667.9089999999998 564.29 666.0389999999998 C 562.7719999999999 665.2079999999997 561.387 664.0539999999997 559.785 663.4829999999997 C 558.2479999999999 662.9349999999997 557.122 661.3409999999997 554.7959999999999 663.6389999999997 C 547.112 671.2299999999997 540.7719999999999 679.6919999999997 535.1009999999999 688.8399999999997 C 529.4009999999998 698.0359999999997 524.4589999999998 707.8369999999996 515.9979999999999 715.0849999999997 C 514.3169999999999 716.5249999999997 513.305 718.7219999999996 511.85999999999996 720.4669999999996 C 509.405 723.4319999999997 507.04599999999994 726.5189999999997 504.28099999999995 729.1729999999997 C 501.70899999999995 731.6419999999997 498.82199999999995 733.8799999999997 495.77699999999993 735.7329999999996 C 492.18499999999995 737.9189999999996 488.6089999999999 740.3369999999996 483.9389999999999 739.9219999999996 C 482.1139999999999 739.7589999999996 480.1979999999999 740.6069999999995 478.3239999999999 740.9949999999995 C 479.2659999999999 739.1329999999996 480.6329999999999 737.3629999999996 481.0599999999999 735.3889999999996 C 481.89499999999987 731.5239999999995 484.7489999999999 729.3629999999996 487.24599999999987 726.8199999999996 C 494.77799999999985 719.1489999999995 502.28199999999987 711.4509999999996 509.77999999999986 703.7469999999996 C 510.0529999999999 703.4659999999997 510.1519999999999 703.0149999999996 510.3319999999999 702.6429999999996 C 509.8719999999999 702.4689999999996 509.41899999999987 702.1709999999996 508.9509999999999 702.1419999999996 C 507.3599999999999 702.0459999999996 505.7419999999999 702.1959999999996 504.1719999999999 701.9809999999997 C 498.3409999999999 701.1809999999997 493.6339999999999 702.9579999999996 489.5689999999999 707.2999999999996 C 487.9449999999999 709.0339999999997 485.3999999999999 709.9619999999996 483.1799999999999 711.0689999999996 C 478.8859999999999 713.2099999999996 474.5769999999999 715.1619999999996 471.0909999999999 718.7259999999997 C 468.03199999999987 721.8519999999996 463.5519999999999 722.4519999999997 459.4529999999999 723.1779999999997 C 456.9829999999999 723.6149999999997 455.21199999999993 723.7379999999996 454.0789999999999 726.5339999999997 C 453.2589999999999 728.5599999999996 451.1269999999999 730.1179999999996 449.3939999999999 731.6779999999997 C 448.7319999999999 732.2739999999997 447.5649999999999 732.3639999999997 446.6019999999999 732.5479999999997 C 446.1339999999999 732.6369999999997 445.6069999999999 732.4119999999997 445.10599999999994 732.3289999999996 C 445.29299999999995 731.7689999999997 445.31899999999996 731.0469999999996 445.6929999999999 730.6749999999996 C 449.92799999999994 726.4559999999996 453.7129999999999 721.6369999999996 458.05299999999994 717.7509999999996 C 464.36299999999994 712.1019999999996 470.3539999999999 705.5359999999996 479.0469999999999 702.8999999999996 C 481.58199999999994 702.1309999999996 483.71199999999993 699.9779999999996 485.9539999999999 698.3589999999996 C 486.1959999999999 698.1849999999996 486.0699999999999 696.9049999999996 485.9099999999999 696.8589999999996 C 483.5109999999999 696.1779999999995 481.0969999999999 695.5099999999995 478.6459999999999 695.0669999999996 C 477.0639999999999 694.7809999999996 475.6499999999999 694.7359999999995 475.4689999999999 697.2579999999996 C 475.4059999999999 698.1389999999996 473.14799999999985 698.8649999999996 471.8889999999999 699.6569999999996 C 467.6149999999999 702.3449999999996 463.1329999999999 704.6499999999996 459.3349999999999 708.1329999999996 C 455.43999999999994 711.7049999999996 450.4319999999999 713.4189999999995 445.4419999999999 715.0249999999996 C 443.5789999999999 715.6249999999997 441.2279999999999 716.0649999999996 440.1159999999999 717.4149999999996 C 434.5049999999999 724.2259999999997 425.71699999999987 727.4079999999997 420.82399999999984 735.2519999999996 C 418.76599999999985 738.5519999999996 414.20099999999985 740.7319999999996 410.32899999999984 742.3589999999996 C 403.4959999999998 745.2309999999995 397.89899999999983 749.9419999999996 392.0269999999998 754.0989999999996 C 387.0689999999998 757.6089999999996 382.31199999999984 761.3619999999996 376.68699999999984 763.6209999999996 C 372.3199999999998 765.3749999999997 368.83799999999985 768.9329999999997 363.99499999999983 769.6139999999997 C 362.25199999999984 769.8589999999997 360.5199999999998 770.1949999999997 358.7699999999998 770.3519999999997 C 358.5619999999998 770.3709999999998 357.9789999999998 769.1979999999998 358.06699999999984 769.1159999999998 C 362.6999999999998 764.8289999999997 367.4089999999998 760.6239999999998 372.06199999999984 756.3579999999997 C 376.08399999999983 752.6699999999997 381.72099999999983 751.1559999999997 384.54199999999986 745.6339999999997 C 386.17299999999983 742.4419999999997 389.6109999999999 739.8759999999996 393.76799999999986 739.2509999999996 C 394.22799999999984 739.1819999999997 394.86399999999986 738.1559999999996 394.8369999999999 737.6019999999996 C 394.8119999999999 737.0889999999996 394.0979999999999 736.3819999999996 393.5309999999999 736.1599999999996 C 389.8649999999999 734.7259999999997 385.9829999999999 733.7279999999996 382.5309999999999 731.9069999999996 C 380.73399999999987 730.9589999999996 380.0619999999999 731.3419999999995 378.55599999999987 732.1949999999996 C 373.9419999999999 734.8059999999996 370.32599999999985 738.5299999999996 366.6489999999999 742.1779999999995 C 361.4779999999999 747.3089999999995 355.6319999999999 750.4109999999995 348.1029999999999 749.4339999999995 C 344.0959999999999 748.9139999999995 340.9379999999999 750.6129999999995 337.4319999999999 752.5539999999995 C 332.3029999999999 755.3929999999996 327.8329999999999 759.8819999999995 321.49099999999993 760.2749999999995 C 319.86999999999995 762.8889999999996 318.31499999999994 758.4339999999995 316.4509999999999 760.2929999999996 C 315.0609999999999 761.6789999999995 313.0619999999999 762.4289999999995 311.4769999999999 763.6489999999995 C 310.2149999999999 764.6199999999995 309.9409999999999 764.3739999999996 309.73799999999994 762.9069999999996 C 309.17799999999994 758.8569999999996 311.47099999999995 756.7419999999996 314.65399999999994 755.0069999999996 C 326.79999999999995 748.3889999999996 338.8159999999999 741.5349999999996 351.58599999999996 736.1139999999996 C 354.09299999999996 735.0499999999996 356.32699999999994 733.1149999999996 358.371 731.2379999999996 C 362.722 727.2429999999996 367.39799999999997 723.7869999999996 372.53 720.8399999999996 C 377.57899999999995 717.9399999999996 381.832 717.4229999999995 387.714 719.5539999999996 C 393.758 721.7439999999997 399.633 724.2279999999996 405.007 727.8369999999996 C 407.32800000000003 729.3959999999996 411.225 728.6389999999997 412.585 726.2859999999996 C 415.611 721.0499999999996 419.27099999999996 716.6009999999997 425.11499999999995 714.3619999999996 C 425.573 714.1859999999996 425.929 713.6829999999997 426.27299999999997 713.2809999999996 C 431.21999999999997 707.4969999999996 437.36499999999995 703.8039999999996 444.748 701.7789999999997 C 449.355 700.5149999999996 453.145 697.3049999999996 456.87 694.4289999999996 C 461.296 691.0119999999996 466.996 689.6269999999996 470.714 685.0559999999996 C 472.782 682.5139999999996 476.081 683.4129999999996 478.699 684.3069999999996 C 483.107 685.8119999999996 487.298 687.9389999999995 491.668 689.5719999999995 C 496.056 691.2109999999996 500.467 692.9829999999995 505.028 693.9019999999996 C 508.122 694.5249999999996 510.899 695.0969999999996 513.214 697.3849999999995 C 514.022 698.1829999999995 515.416 699.0099999999995 516.397 698.8619999999995 C 517.7750000000001 698.6539999999995 519.211 697.7609999999995 520.2860000000001 696.7889999999995 C 524.687 692.8119999999996 529.3230000000001 688.9069999999996 531.7700000000001 683.3579999999995 C 534.5820000000001 676.9839999999995 539.6500000000001 672.3349999999995 543.6220000000001 666.8559999999995 C 545.0240000000001 664.9219999999996 546.9060000000001 663.3419999999995 548.5070000000001 661.5449999999995 C 549.966 659.9079999999996 551.5200000000001 658.3149999999995 552.719 656.4959999999995 C 556.34 650.9989999999996 561.743 652.1989999999995 566.9330000000001 652.4829999999995 C 568.5810000000001 655.0719999999995 571.2220000000001 654.0149999999995 573.445 654.1049999999994 C 578.0680000000001 654.2919999999995 582.191 655.9979999999995 586.4150000000001 657.6109999999994 C 593.576 660.3449999999995 600.3380000000001 664.1129999999994 608.306 664.7759999999994 C 610.9010000000001 664.9919999999994 613.909 666.1479999999993 616.4300000000001 668.1819999999993 C 620.4630000000001 671.4359999999994 625.6830000000001 672.6679999999993 630.461 674.6119999999993 C 632.287 675.3549999999993 634.636 675.3059999999992 636.049 676.4669999999993 C 639.116 678.9869999999993 643.073 678.9379999999993 645.6659999999999 677.8689999999993 C 648.8589999999999 676.5529999999993 651.736 677.0569999999993 654.7449999999999 676.8349999999994 C 656.5919999999999 676.6989999999994 658.7539999999999 677.5039999999993 660.2579999999999 676.7929999999993 C 662.7359999999999 675.6209999999993 664.983 673.2119999999993 667.8179999999999 674.0209999999993 C 673.0129999999999 675.5039999999992 678.2859999999998 677.1139999999992 683.0649999999998 679.5689999999993 C 692.2779999999998 684.3019999999992 701.2229999999998 689.5679999999993 710.1729999999998 694.7949999999993 C 715.5299999999997 697.9239999999993 720.7089999999997 701.3639999999992 725.9209999999998 704.7349999999993 C 727.8319999999998 705.9709999999993 728.5439999999999 708.9979999999994 731.3279999999999 708.8639999999994 C 735.9809999999999 708.6409999999994 740.6499999999999 710.0609999999994 745.3049999999998 708.2719999999994 C 752.1829999999999 705.6279999999994 759.1579999999998 703.2299999999993 766.1289999999998 700.8369999999994 C 771.0149999999998 699.1589999999994 775.8799999999998 697.2929999999994 780.9029999999998 696.1759999999995 C 787.9589999999998 694.6059999999994 795.0809999999998 695.6009999999994 800.0799999999998 700.9749999999995 C 806.9869999999999 708.4009999999995 816.2689999999998 711.9159999999995 824.2959999999998 717.4519999999994 C 824.8929999999998 717.8639999999995 825.6129999999998 718.1149999999994 826.2989999999999 718.3799999999994 C 828.9009999999998 719.3869999999994 831.0439999999999 720.8929999999995 832.1159999999999 723.5989999999995 C 829.0839999999998 723.4399999999995 825.9179999999999 723.7739999999994 823.0579999999999 722.9889999999995 C 820.0319999999999 722.1579999999994 817.1349999999999 720.5099999999994 814.4809999999999 718.7649999999994 C 811.5689999999998 716.8499999999995 807.4979999999999 716.8579999999994 805.5649999999998 713.1849999999994 C 805.1719999999998 712.4389999999994 803.2929999999998 712.2709999999994 802.0779999999999 712.1969999999993 C 797.5039999999999 711.9189999999993 792.6889999999999 712.7299999999993 789.0379999999999 708.8179999999993 C 788.7719999999999 708.5339999999993 788.036 708.7199999999993 787.531 708.6219999999993 C 785.439 708.2139999999993 784.502 709.1909999999992 785.1089999999999 711.1719999999992 C 786.6439999999999 716.1829999999992 787.223 716.8629999999993 793.944 721.5439999999992 C 796.146 723.0779999999992 796.3439999999999 723.9229999999992 794.467 725.1659999999991 C 792.365 726.5579999999992 790.467 727.5439999999992 787.42 726.3539999999991 C 782.3979999999999 724.3949999999992 778.6179999999999 721.2209999999991 775.353 717.2269999999992 C 773.707 715.2129999999992 771.8149999999999 714.5529999999992 769.252 714.5139999999992 C 764.356 714.4399999999993 759.564 714.4109999999993 755.3069999999999 717.3529999999993 C 754.632 717.8199999999993 753.8179999999999 718.0849999999992 753.0689999999998 718.4439999999993 C 753.8199999999998 719.1759999999992 754.4479999999999 720.3089999999993 755.3389999999998 720.5799999999992 C 770.9919999999998 725.3539999999992 785.4949999999998 732.6139999999992 799.5729999999999 740.8149999999993 C 800.4219999999999 741.3089999999993 801.3559999999999 741.6589999999993 802.1899999999998 742.1739999999993 C 802.6259999999999 742.4419999999993 802.9309999999998 742.9229999999993 803.2949999999998 743.3069999999993 C 802.8669999999998 743.5619999999993 802.4399999999998 744.0309999999994 802.0099999999999 744.0349999999993 C 799.614 744.054 797.222 743.959 794.157 743.887 z" stroke-linecap="round" />
</g>
		<g transform="matrix(1 0 0 1 -11.76 -0.94)"  >
<path style="stroke: none; stroke-width: 1; stroke-dasharray: none; stroke-linecap: butt; stroke-dashoffset: 0; stroke-linejoin: miter; stroke-miterlimit: 4; fill: rgb(255,255,255); fill-rule: nonzero; opacity: 1;" vector-effect="non-scaling-stroke"  transform=" translate(-548.91, -726.17)" d="M 522.501 745.814 C 521.644 745.23 521.05 745.035 520.872 744.6479999999999 C 520.673 744.2159999999999 520.6279999999999 743.391 520.9 743.1149999999999 C 523.789 740.1789999999999 526.51 737.1339999999999 529.1379999999999 733.9379999999999 C 531.6199999999999 730.9199999999998 535.5719999999999 729.1189999999999 538.848 726.7419999999998 C 540.299 725.6889999999999 542.13 724.8159999999998 543.0129999999999 723.3839999999999 C 547.1879999999999 716.6059999999999 553.2879999999999 711.954 559.708 707.6149999999999 C 560.4979999999999 707.0809999999999 561.51 706.8369999999999 562.453 706.5849999999999 C 562.939 706.4549999999999 563.499 706.6009999999999 564.026 706.622 C 563.9639999999999 707.184 563.995 707.775 563.8259999999999 708.3019999999999 C 562.6469999999999 711.9799999999999 559.2849999999999 713.8279999999999 556.9429999999999 716.5349999999999 C 556.5729999999999 716.9629999999999 556.5339999999999 718.1629999999999 556.8709999999999 718.5859999999999 C 557.2409999999999 719.0519999999999 558.4459999999999 719.425 558.8999999999999 719.1639999999999 C 562.5589999999999 717.0629999999999 566.2459999999999 715.2589999999999 570.4509999999999 714.2779999999999 C 572.6419999999999 713.7669999999999 574.4509999999999 711.6139999999999 577.1069999999999 712.1579999999999 C 575.5979999999998 713.8119999999999 573.9259999999998 715.3469999999999 572.6139999999998 717.1439999999999 C 569.8969999999998 720.8669999999998 565.5569999999998 722.0519999999999 561.8129999999998 723.9769999999999 C 556.5069999999997 726.7049999999998 550.4959999999998 728.1069999999999 546.3249999999998 732.8199999999998 C 540.6089999999998 733.7639999999998 536.9129999999998 739.2559999999999 530.7149999999998 739.5329999999998 C 528.8379999999999 739.6169999999997 527.0649999999998 742.1519999999998 525.2549999999998 743.5769999999998 C 524.285 744.34 523.339 745.131 522.501 745.814 z" stroke-linecap="round" />
</g>
		<g transform="matrix(1 0 0 1 -107.32 37.95)"  >
<path style="stroke: none; stroke-width: 1; stroke-dasharray: none; stroke-linecap: butt; stroke-dashoffset: 0; stroke-linejoin: miter; stroke-miterlimit: 4; fill: rgb(255,255,255); fill-rule: nonzero; opacity: 1;" vector-effect="non-scaling-stroke"  transform=" translate(-453.35, -765.06)" d="M 435.108 782.195 C 433.951 781.647 432.444 781.3480000000001 432.348 780.802 C 432.146 779.644 432.247 777.91 432.983 777.198 C 437.064 773.25 440.711 768.744 445.988 766.206 C 450.59 763.992 454.424 760.7090000000001 458.392 757.567 C 462.541 754.2810000000001 466.952 751.32 471.33 748.335 C 472.006 747.874 473.11199999999997 748.0450000000001 474.02 747.923 C 474.14799999999997 748.922 474.67199999999997 750.089 474.33299999999997 750.891 C 473.041 753.9459999999999 471.414 757.04 468.47299999999996 758.67 C 462.65199999999993 761.8969999999999 458.74799999999993 767.2539999999999 453.66399999999993 771.242 C 449.1619999999999 774.7729999999999 444.9679999999999 778.9019999999999 439.18999999999994 780.5219999999999 C 437.792 780.911 436.485 781.62 435.108 782.195 z" stroke-linecap="round" />
</g>
		<g transform="matrix(1 0 0 1 -235.54 59.6)"  >
<path style="stroke: none; stroke-width: 1; stroke-dasharray: none; stroke-linecap: butt; stroke-dashoffset: 0; stroke-linejoin: miter; stroke-miterlimit: 4; fill: rgb(255,255,255); fill-rule: nonzero; opacity: 1;" vector-effect="non-scaling-stroke"  transform=" translate(-325.13, -786.71)" d="M 307.777 796.35 C 306.985 796.332 306.10499999999996 796.519 305.43 796.229 C 304.901 796.0020000000001 304.481 795.2280000000001 304.29200000000003 794.6120000000001 C 304.18600000000004 794.2650000000001 304.52700000000004 793.523 304.87100000000004 793.335 C 310.696 790.164 316.57900000000006 787.0980000000001 322.39300000000003 783.907 C 325.485 782.21 328.43600000000004 780.4920000000001 332.247 780.897 C 335.2 781.211 337.286 779.152 339.533 777.4580000000001 C 342.61600000000004 775.1340000000001 345.704 776.5880000000001 345.993 780.3380000000001 C 346.055 781.1450000000001 345.042 782.777 344.95 782.7460000000001 C 341.667 781.657 340.548 785.0670000000001 338.239 785.878 C 336.625 786.4440000000001 334.945 787.349 333.33 787.279 C 329.512 787.112 326.777 788.958 323.61199999999997 790.727 C 318.75499999999994 793.442 313.26099999999997 795.016 308.037 797.074 C 307.951 796.833 307.865 796.591 307.777 796.35 z" stroke-linecap="round" />
</g>
		<g transform="matrix(1 0 0 1 266.18 31.57)"  >
<path style="stroke: none; stroke-width: 1; stroke-dasharray: none; stroke-linecap: butt; stroke-dashoffset: 0; stroke-linejoin: miter; stroke-miterlimit: 4; fill: rgb(255,255,255); fill-rule: nonzero; opacity: 1;" vector-effect="non-scaling-stroke"  transform=" translate(-826.86, -758.68)" d="M 836.591 768.814 C 835.346 768.192 833.123 767.515 831.471 766.149 C 829.302 764.356 827.001 763.145 824.423 762.03 C 818.282 759.3729999999999 816.924 758.119 812.46 752.812 C 811.7850000000001 752.01 811.7710000000001 750.652 811.451 749.551 C 812.929 749.142 814.4150000000001 748.399 815.8820000000001 748.436 C 816.9760000000001 748.4630000000001 818.1080000000001 749.407 819.113 750.1020000000001 C 824.403 753.7570000000001 830.6740000000001 755.6780000000001 835.83 759.5150000000001 C 837.717 760.9190000000001 839.1980000000001 762.8840000000001 840.793 764.6580000000001 C 841.388 765.3190000000001 841.778 766.1650000000001 842.261 766.9260000000002 C 841.199 767.5740000000002 840.1709999999999 768.2930000000001 839.057 768.8360000000001 C 838.635 769.043 838.016 768.848 836.591 768.814 z" stroke-linecap="round" />
</g>
		<g transform="matrix(1 0 0 1 -280.96 48.64)"  >
<path style="stroke: none; stroke-width: 1; stroke-dasharray: none; stroke-linecap: butt; stroke-dashoffset: 0; stroke-linejoin: miter; stroke-miterlimit: 4; fill: rgb(255,255,255); fill-rule: nonzero; opacity: 1;" vector-effect="non-scaling-stroke"  transform=" translate(-279.71, -775.75)" d="M 297.346 769.815 C 296.638 770.936 296.4 771.8340000000001 295.858 772.091 C 288.559 775.55 281.284 779.076 273.852 782.229 C 271.169 783.368 268.10499999999996 783.7660000000001 265.16999999999996 784.0680000000001 C 264.18899999999996 784.1690000000001 262.991 783.0090000000001 262.08899999999994 782.205 C 261.93499999999995 782.0680000000001 262.62899999999996 780.664 263.18699999999995 780.0980000000001 C 265.88199999999995 777.368 268.61299999999994 774.9870000000001 272.88999999999993 774.6300000000001 C 275.42299999999994 774.4190000000001 278.30299999999994 773.1370000000001 280.17799999999994 771.4130000000001 C 283.4359999999999 768.4180000000001 287.81899999999996 769.5220000000002 291.35299999999995 767.5450000000001 C 292.495 766.908 295.105 768.901 297.346 769.815 z" stroke-linecap="round" />
</g>
		<g transform="matrix(1 0 0 1 107.28 5.09)"  >
<path style="stroke: none; stroke-width: 1; stroke-dasharray: none; stroke-linecap: butt; stroke-dashoffset: 0; stroke-linejoin: miter; stroke-miterlimit: 4; fill: rgb(255,255,255); fill-rule: nonzero; opacity: 1;" vector-effect="non-scaling-stroke"  transform=" translate(-667.95, -732.2)" d="M 679.807 742.811 C 677.4780000000001 743.191 675.61 742.206 673.987 740.201 C 669.1379999999999 734.21 662.096 730.995 656.1429999999999 726.395 C 655.1899999999999 725.658 653.91 725.337 652.9789999999999 724.579 C 652.4929999999999 724.183 652.1429999999999 723.1899999999999 652.281 722.592 C 652.391 722.116 653.333 721.51 653.9029999999999 721.513 C 657.8399999999999 721.534 662.0219999999999 721.178 663.6879999999999 726.0930000000001 C 667.9339999999999 727.6510000000001 669.7579999999999 732.5010000000001 674.8969999999998 733.4370000000001 C 677.9329999999998 733.9900000000001 680.4439999999998 737.6120000000001 683.0869999999999 739.9700000000001 C 683.5389999999999 740.3730000000002 683.7989999999999 741.5170000000002 683.5499999999998 742.0280000000001 C 683.3179999999999 742.5040000000001 682.3079999999999 742.6670000000001 681.6079999999998 742.8280000000001 C 681.112 742.943 680.561 742.829 679.807 742.811 z" stroke-linecap="round" />
</g>
		<g transform="matrix(1 0 0 1 51.06 -0.25)"  >
<path style="stroke: none; stroke-width: 1; stroke-dasharray: none; stroke-linecap: butt; stroke-dashoffset: 0; stroke-linejoin: miter; stroke-miterlimit: 4; fill: rgb(255,255,255); fill-rule: nonzero; opacity: 1;" vector-effect="non-scaling-stroke"  transform=" translate(-611.73, -726.86)" d="M 623.124 737.195 C 622.812 737.442 622.311 738.1800000000001 621.773 738.2090000000001 C 618.827 738.365 616.543 737.003 614.4300000000001 735.0020000000001 C 612.24 732.9280000000001 609.6610000000001 731.264 607.47 729.191 C 605.852 727.659 603.823 726.3140000000001 604.1650000000001 723.392 C 604.273 722.474 602.782 721.398 602.0880000000001 720.351 C 600.378 717.772 599.922 715.292 600.5200000000001 715.515 C 601.8720000000001 716.02 603.0840000000001 716.944 604.291 717.787 C 607.546 720.0600000000001 611.124 722.018 613.912 724.7710000000001 C 617.342 728.157 620.1070000000001 732.2180000000001 623.135 736.0070000000001 C 623.261 736.164 623.139 736.519 623.124 737.195 z" stroke-linecap="round" />
</g>
		<g transform="matrix(1 0 0 1 200.16 23.74)"  >
<path style="stroke: none; stroke-width: 1; stroke-dasharray: none; stroke-linecap: butt; stroke-dashoffset: 0; stroke-linejoin: miter; stroke-miterlimit: 4; fill: rgb(255,255,255); fill-rule: nonzero; opacity: 1;" vector-effect="non-scaling-stroke"  transform=" translate(-760.83, -750.85)" d="M 753.93 744.055 C 755.9129999999999 745.049 758.223 745.939 760.237 747.275 C 763.7729999999999 749.622 767.1619999999999 752.199 770.52 754.799 C 770.9739999999999 755.15 771.226 756.36 770.968 756.861 C 770.721 757.3389999999999 769.506 757.813 769.024 757.599 C 762.961 754.897 755.934 753.875 751.67 747.9770000000001 C 751.117 747.2120000000001 750.942 746.1740000000001 750.591 745.2620000000001 C 751.512 744.93 752.433 744.597 753.93 744.055 z" stroke-linecap="round" />
</g>
		<g transform="matrix(1 0 0 1 293.26 8.27)"  >
<path style="stroke: none; stroke-width: 1; stroke-dasharray: none; stroke-linecap: butt; stroke-dashoffset: 0; stroke-linejoin: miter; stroke-miterlimit: 4; fill: rgb(255,255,255); fill-rule: nonzero; opacity: 1;" vector-effect="non-scaling-stroke"  transform=" translate(-853.93, -735.38)" d="M 855.887 739.554 C 853.702 738.3829999999999 851.4369999999999 737.415 849.4979999999999 736 C 848.7969999999999 735.488 848.3449999999999 733.63 848.733 732.883 C 849.2149999999999 731.955 850.069 730.068 852.0669999999999 732.115 C 853.5099999999999 733.594 855.9789999999999 734.022 857.8189999999998 735.19 C 858.5449999999998 735.6510000000001 858.8039999999999 736.846 859.2749999999999 737.7070000000001 C 858.297 738.241 857.318 738.774 855.887 739.554 z" stroke-linecap="round" />
</g>
		<g transform="matrix(1 0 0 1 124.06 -6.5)"  >
<path style="stroke: none; stroke-width: 1; stroke-dasharray: none; stroke-linecap: butt; stroke-dashoffset: 0; stroke-linejoin: miter; stroke-miterlimit: 4; fill: rgb(255,255,255); fill-rule: nonzero; opacity: 1;" vector-effect="non-scaling-stroke"  transform=" translate(-684.73, -720.61)" d="M 679.111 718.995 C 679.63 718.362 680.172 717.311 680.4879999999999 717.375 C 683.8879999999999 718.067 687.473 718.443 690.054 721.13 C 690.451 721.543 690.386 722.554 690.2629999999999 723.239 C 690.213 723.519 689.3489999999999 723.942 689.0049999999999 723.8330000000001 C 686.1899999999998 722.9370000000001 683.3839999999999 721.9970000000001 680.6409999999998 720.9060000000001 C 680.042 720.669 679.707 719.771 679.111 718.995 z" stroke-linecap="round" />
</g>
		<g transform="matrix(1 0 0 1 243.72 3.62)"  >
<path style="stroke: none; stroke-width: 1; stroke-dasharray: none; stroke-linecap: butt; stroke-dashoffset: 0; stroke-linejoin: miter; stroke-miterlimit: 4; fill: rgb(255,255,255); fill-rule: nonzero; opacity: 1;" vector-effect="non-scaling-stroke"  transform=" translate(-804.39, -730.72)" d="M 804.447 728.171 C 805.229 728.1890000000001 806.043 728.076 806.788 728.2520000000001 C 808.696 728.7030000000001 810.272 729.936 809.842 731.921 C 809.38 734.056 806.475 733.363 806.0459999999999 732.855 C 804.1469999999999 730.6080000000001 801.7399999999999 731.605 799.5769999999999 731.177 C 799.2569999999998 731.114 798.8129999999999 730.342 798.8759999999999 729.975 C 798.9909999999999 729.307 799.3849999999999 728.192 799.7639999999999 728.149 C 801.304 727.974 802.882 728.134 804.447 728.171 z" stroke-linecap="round" />
</g>
		<g transform="matrix(1 0 0 1 -15.46 32.31)"  >
<path style="stroke: none; stroke-width: 1; stroke-dasharray: none; stroke-linecap: butt; stroke-dashoffset: 0; stroke-linejoin: miter; stroke-miterlimit: 4; fill: rgb(255,255,255); fill-rule: nonzero; opacity: 1;" vector-effect="non-scaling-stroke"  transform=" translate(-545.21, -759.43)" d="M 544.964 758.491 C 546.0100000000001 758.894 546.6840000000001 759.154 547.359 759.415 C 546.623 759.746 545.908 760.2669999999999 545.144 760.352 C 544.477 760.4259999999999 543.755 760.01 543.057 759.81 C 543.711 759.357 544.365 758.906 544.964 758.491 z" stroke-linecap="round" />
</g>
		<g transform="matrix(1 0 0 1 -126.83 12.87)"  >
<path style="stroke: none; stroke-width: 1; stroke-dasharray: none; stroke-linecap: butt; stroke-dashoffset: 0; stroke-linejoin: miter; stroke-miterlimit: 4; fill: rgb(255,255,255); fill-rule: nonzero; opacity: 1;" vector-effect="non-scaling-stroke"  transform=" translate(-433.84, -739.98)" d="M 436.122 739.915 C 434.587 740.5799999999999 433.73 741.072 432.809 741.2869999999999 C 432.47200000000004 741.3659999999999 431.982 740.7889999999999 431.562 740.511 C 432.119 739.889 432.617 739.189 433.271 738.6949999999999 C 433.454 738.556 434.096 739.025 436.122 739.915 z" stroke-linecap="round" />
</g>
</g>
</g>
</svg>